# AST/ASF file generated using VICON BodyLanguage
# -----------------------------------------------
:version 1.10
:name VICON
:units
  mass 1.0
  length 0.45
  angle deg
:documentation
   .ast/.asf automatically generated from VICON data using
   VICON BodyBuilder and BodyLanguage model FoxedUp or BRILLIANT.MOD
:root
   order TX TY TZ RX RY RZ
   axis XYZ
   position 0 0 0  
   orientation 0 0 0 
:bonedata
  begin
     id 1 
     name lhipjoint
     direction 0.589753 -0.68606 0.426044 
     length 2.54082 
     axis 0 0 0  XYZ
  end
  begin
     id 2 
     name lfemur
     direction 0.34202 -0.939693 0  
     length 7.04539  
     axis 0 0 20  XYZ
    dof rx ry rz
    limits (-160.0 20.0)
           (-70.0 70.0)
           (-60.0 70.0)
  end
  begin
     id 3 
     name ltibia
     direction 0.34202 -0.939693 0   
     length 7.83772   
     axis 0 0 20   XYZ
    dof rx
    limits (-10.0 170.0)
  end
  begin
     id 4 
     name lfoot
     direction 0.0596604 -0.163915 0.984669   
     length 2.39542   
     axis -90 7.62852e-016 20   XYZ
    dof rx rz
    limits (-45.0 90.0)
           (-70.0 20.0)
  end
  begin
     id 5 
     name ltoes
     direction 1.53514e-011 -4.21954e-011 1   
     length 1.2047   
     axis -90 7.62852e-016 20   XYZ
    dof rx
    limits (-90.0 20.0)
  end
  begin
     id 6 
     name rhipjoint
     direction -0.580585 -0.69168 0.429534   
     length 2.52018  
     axis 0 0 0  XYZ 
  end
  begin
     id 7 
     name rfemur
     direction -0.34202 -0.939693 0   
     length 7.0101   
     axis 0 0 -20   XYZ
    dof rx ry rz
    limits (-160.0 20.0)
           (-70.0 70.0)
           (-70.0 60.0)
  end
  begin
     id 8 
     name rtibia
     direction -0.34202 -0.939693 0   
     length 7.70628   
     axis 0 0 -20   XYZ
    dof rx
    limits (-10.0 170.0)
 end
 begin
     id 9 
     name rfoot
     direction -0.0696237 -0.19129 0.979061   
     length 2.52466  
     axis -90 -7.62852e-016 -20   XYZ
    dof rx rz
    limits (-45.0 90.0)
           (-20.0 70.0)
  end
  begin
     id 10 
     name rtoes
     direction -1.53519e-011 -4.21793e-011 1   
     length 1.266   
     axis -90 -7.62852e-016 -20   XYZ
    dof rx
    limits (-90.0 20.0)
  end
  begin
     id 11 
     name lowerback
     direction 0.00381965 0.995707 -0.0924856   
     length 2.20825   
     axis 0 0 0   XYZ
    dof rx ry rz
    limits (-20.0 45.0)
           (-30.0 30.0)
           (-30.0 30.0)
  end
  begin
     id 12 
     name upperback
     direction -0.0139043 0.999634 -0.0231929   
     length 2.21517   
     axis 0 0 0   XYZ
    dof rx ry rz
    limits (-20.0 45.0)
           (-30.0 30.0)
           (-30.0 30.0)
  end
  begin
     id 13 
     name thorax
     direction -0.0143933 0.999691 0.0202892   
     length 2.22911   
     axis 0 0 0   XYZ
    dof rx ry rz
    limits (-20.0 45.0)
           (-30.0 30.0)
           (-30.0 30.0)
  end
  begin
     id 14 
     name lowerneck
     direction -0.0251153 0.981819 0.188153   
     length 1.61782   
     axis 0 0 0   XYZ
    dof rx ry rz
    limits (-20.0 45.0)
           (-30.0 30.0)
           (-30.0 30.0)
  end
  begin
     id 15 
     name upperneck
     direction 0.0563891 0.969357 -0.239095   
     length 1.64526   
     axis 0 0 0   XYZ
    dof rx ry rz
    limits (-20.0 45.0)
           (-30.0 30.0)
           (-30.0 30.0)
  end
  begin
     id 16
     name head
     direction 0.0208328 0.99459 -0.101773  
     length 1.67436  
     axis 0 0 0   XYZ
    dof rx ry rz
    limits (-20.0 45.0)
           (-30.0 30.0)
           (-30.0 30.0)
  end
  begin
     id 17 
     name lclavicle
     direction 0.917689 0.397224 0.00772059  
     length 3.31102  
     axis 0 0 0   XYZ
    dof ry rz
    limits (-20.0 10.0)
           (0.0 20.0)
  end
  begin
     id 18 
     name lhumerus
     direction 1 -4.4896e-011 2.32308e-027   
     length 5.25537   
     axis 180 -30 -90   XYZ
    dof rx ry rz
    limits (-60.0 90.0)
           (-90.0 90.0)
           (-90.0 90.0)
  end
  begin
     id 19
     name lradius
     direction 1 -4.49005e-011 -2.04271e-027   
     length 3.38855   
     axis 180 -30 -90   XYZ
    dof rx
    limits (-10.0 170.0)
  end
  begin
     id 20
     name lwrist
     direction 1 -4.48892e-011 2.56952e-028   
     length 1.69428   
     axis -5.12785e-016 90 90   XYZ
    dof ry
    limits (-180.0 0.0)
 end
  begin
     id 21 
     name lhand
     direction 1 -4.48966e-011 5.13905e-028   
     length 0.614516   
     axis -3.27915e-016 90 90   XYZ
    dof rx rz
    limits (-90.0 90.0)
           (-45.0 45.0)
  end
  begin
     id 22 
     name lfingers
     direction 1 -4.48979e-011 1.02781e-027   
     length 0.495439   
     axis -6.5583e-016 90 90   XYZ
    dof rx
    limits (0.0 90.0)
  end
  begin
     id 23
     name lthumb
     direction 0.707107 -6.35001e-011 0.707107   
     length 0.711354   
     axis -90 45 2.85299e-015   XYZ
    dof rx rz
    limits (-45.0 45.0)
           (-45.0 45.0)
  end
  begin
     id 24 
     name rclavicle
     direction -0.938556 0.342765 -0.0403177   
     length 3.27019  
     axis 0 0 0   XYZ 
    dof ry rz
    limits (-10.0 20.0)
           (-20.0 0.0)
  end
  begin
     id 25 
     name rhumerus
     direction -1 -4.48966e-011 2.52291e-027  
     length 5.38183   
     axis 180 30 90   XYZ
    dof rx ry rz
    limits (-90.0 60.0)
           (-90.0 90.0)
           (-90.0 90.0)
  end
  begin
     id 26 
     name rradius
     direction -1 -4.4896e-011 1.5797e-027   
     length 3.16988   
     axis 180 30 90   XYZ
    dof rx
    limits (-10.0 170.0)
  end
  begin
     id 27 
     name rwrist
     direction -1 -4.48947e-011 2.56952e-028   
     length 1.58494   
     axis -5.12785e-016 -90 -90   XYZ
    dof ry
    limits (-180.0 0.0)
  end
  begin
     id 28
     name rhand
     direction -1 -4.49098e-011 5.13905e-028   
     length 0.637679   
     axis -3.27915e-016 -90 -90   XYZ
    dof rx rz
    limits (-90.0 90.0)
           (-45.0 45.0)
  end
  begin
     id 29
     name rfingers
     direction -1 -4.49026e-011 1.02781e-027   
     length 0.514113   
     axis -6.5583e-016 -90 -90   XYZ
    dof rx
    limits (0.0 90.0)
  end
  begin
     id 30
     name rthumb
     direction -0.707107 -6.3491e-011 0.707107   
     length 0.738167   
     axis -90 -45 -2.85299e-015   XYZ
    dof rx rz
    limits (-45.0 45.0)
           (-45.0 45.0)
  end
:hierarchy
  begin
    root lhipjoint rhipjoint lowerback
    lhipjoint lfemur
    lfemur ltibia
    ltibia lfoot
    lfoot ltoes
    rhipjoint rfemur
    rfemur rtibia
    rtibia rfoot
    rfoot rtoes
    lowerback upperback
    upperback thorax
    thorax lowerneck lclavicle rclavicle
    lowerneck upperneck
    upperneck head
    lclavicle lhumerus
    lhumerus lradius
    lradius lwrist
    lwrist lhand lthumb
    lhand lfingers
    rclavicle rhumerus
    rhumerus rradius
    rradius rwrist
    rwrist rhand rthumb
    rhand rfingers
  end

#!OML:ASF H:\Swim\Project 1\Capture day 1\Session 1\swimmer.ASF
:FULLY-SPECIFIED
:DEGREES
3309
root 0.802715 17.0158 -22.9692 105.929 -6.62955 29.6708
lowerback 2.07996 -8.35905 -7.5923
upperback -6.39083 -12.001 -0.959907
thorax -6.58535 -5.64293 3.93225
lowerneck -7.80387 -8.27095 -20.422
upperneck -8.85493 -9.084 21.6127
head 0.846977 -4.26517 9.77304
rclavicle 1.59028e-014 4.42296e-015
rhumerus 32.9066 -4.48756 16.9221
rradius 35.1868
rwrist -197.49
rhand -42.2084 1.35885
rfingers 7.12502
rthumb -15.0959 -28.0707
lclavicle 1.59028e-014 4.42296e-015
lhumerus 39.0262 0.278567 -10.8556
lradius 31.9937
lwrist -8.34557
lhand 5.80321 2.07001
lfingers 7.12502
lthumb 31.1358 29.4455
rfemur -25.1009 -20.0848 4.06943
rtibia 41.5063
rfoot -35.4159 -20.3529
rtoes 3.83681
lfemur -31.745 -23.8931 -21.0828
ltibia 17.6906
lfoot 13.3978 5.55742
ltoes 1.82686
3310
root 0.79996 17.0113 -22.9889 105.753 -6.62098 29.6578
lowerback 2.05479 -8.37875 -7.52876
upperback -6.38619 -12.0203 -0.942705
thorax -6.57182 -5.65686 3.9131
lowerneck -7.83195 -8.23589 -20.4177
upperneck -8.84119 -9.03235 21.5736
head 0.841223 -4.23675 9.76303
rclavicle 5.725e-014 -3.59303e-014
rhumerus 32.4589 -3.44937 16.9904
rradius 35.387
rwrist -198.864
rhand -42.1982 1.37431
rfingers 7.12502
rthumb -15.0861 -28.0559
lclavicle 5.725e-014 -3.59303e-014
lhumerus 38.1904 -1.10727 -11.6531
lradius 32.3763
lwrist -7.46432
lhand 6.08748 1.86284
lfingers 7.12502
lthumb 31.4067 29.186
rfemur -25.0665 -19.9955 4.07003
rtibia 41.4867
rfoot -35.2651 -20.4863
rtoes 3.85071
lfemur -31.8179 -23.9061 -21.2272
ltibia 17.5415
lfoot 13.3834 5.27086
ltoes 1.46293
3311
root 0.79749 17.0068 -23.0089 105.576 -6.60533 29.6471
lowerback 2.03492 -8.39484 -7.46095
upperback -6.38783 -12.0352 -0.92031
thorax -6.56828 -5.66811 3.89854
lowerneck -7.85006 -8.20492 -20.4277
upperneck -8.82552 -8.9871 21.5511
head 0.837738 -4.21188 9.76079
rclavicle -9.70069e-014 -2.9271e-014
rhumerus 32.002 -2.40411 17.0436
rradius 35.6573
rwrist -200.066
rhand -42.2321 1.29618
rfingers 7.12502
rthumb -15.1188 -28.1316
lclavicle -9.70069e-014 -2.9271e-014
lhumerus 37.398 -2.5365 -12.4257
lradius 32.8064
lwrist -6.7222
lhand 6.40665 1.59961
lfingers 7.12502
lthumb 31.7107 28.8631
rfemur -25.014 -19.8377 4.07096
rtibia 41.456
rfoot -35.2238 -20.546
rtoes 4.12845
lfemur -31.8922 -23.909 -21.3662
ltibia 17.4179
lfoot 13.3562 4.98192
ltoes 1.10142
3312
root 0.795518 17.0026 -23.0287 105.389 -6.58419 29.6442
lowerback 2.02515 -8.41352 -7.37977
upperback -6.38117 -12.0535 -0.903356
thorax -6.56488 -5.68188 3.87273
lowerneck -7.88212 -8.1755 -20.4277
upperneck -8.81351 -8.9415 21.5422
head 0.83613 -4.18662 9.76113
rclavicle 3.97569e-014 1.53561e-014
rhumerus 31.5261 -1.37281 17.0492
rradius 36.02
rwrist -201.004
rhand -42.3198 1.07421
rfingers 7.12502
rthumb -15.2033 -28.3472
lclavicle 3.97569e-014 1.53561e-014
lhumerus 36.6365 -3.99224 -13.2016
lradius 33.2757
lwrist -6.0788
lhand 6.71052 1.22632
lfingers 7.12502
lthumb 32.0001 28.4322
rfemur -24.9391 -19.6339 4.07005
rtibia 41.4166
rfoot -35.2479 -20.5858
rtoes 4.55125
lfemur -31.9586 -23.9063 -21.5048
ltibia 17.328
lfoot 13.4787 4.69278
ltoes 1.51212
3313
root 0.794039 16.9986 -23.049 105.188 -6.56517 29.6489
lowerback 2.02946 -8.43392 -7.2916
upperback -6.36887 -12.0745 -0.887486
thorax -6.56471 -5.69721 3.84425
lowerneck -7.9215 -8.1521 -20.4431
upperneck -8.80279 -8.90148 21.5468
head 0.838265 -4.16356 9.76798
rclavicle 1.24042e-013 7.78987e-014
rhumerus 31.0394 -0.321034 17.0576
rradius 36.4786
rwrist -201.674
rhand -42.4395 0.672622
rfingers 7.12502
rthumb -15.3185 -28.74
lclavicle 1.24042e-013 7.78987e-014
lhumerus 35.8995 -5.46844 -13.9512
lradius 33.7686
lwrist -5.49659
lhand 6.95458 0.749218
lfingers 7.12502
lthumb 32.2325 27.9083
rfemur -24.8399 -19.395 4.05801
rtibia 41.3728
rfoot -35.3476 -20.5652
rtoes 5.16869
lfemur -32.0093 -23.88 -21.6617
ltibia 17.2709
lfoot 13.5908 4.37505
ltoes 1.92643
3314
root 0.793203 16.9947 -23.0698 104.965 -6.55552 29.6621
lowerback 2.05475 -8.45832 -7.19411
upperback -6.34938 -12.1027 -0.883698
thorax -6.57252 -5.71636 3.80207
lowerneck -7.95351 -8.13135 -20.4629
upperneck -8.80573 -8.8645 21.5647
head 0.837232 -4.1426 9.78042
rclavicle 2.38542e-014 -2.93953e-014
rhumerus 30.5446 0.765925 17.0713
rradius 37.022
rwrist -202.111
rhand -42.5861 0.0935006
rfingers 7.12502
rthumb -15.4598 -29.3083
lclavicle 2.38542e-014 -2.93953e-014
lhumerus 35.1838 -6.96779 -14.6912
lradius 34.2801
lwrist -4.85413
lhand 7.12644 0.184481
lfingers 7.12502
lthumb 32.396 27.3102
rfemur -24.7153 -19.1472 4.02771
rtibia 41.3322
rfoot -35.4911 -20.5062
rtoes 5.90397
lfemur -32.0285 -23.824 -21.8512
ltibia 17.234
lfoot 13.7269 4.02592
ltoes 2.37217
